<svg xmlns="http://www.w3.org/2000/svg" width="1200" height="285" viewBox="0 0 1200 285" role="img"><title>マニューバと予測</title><defs><style>
.s{font-family:system-ui,-apple-system,"Hiragino Sans","Yu Gothic",sans-serif}.m{font-family:ui-monospace,SFMono-Regular,Menlo,Consolas,"Yu Gothic",monospace}
.t{fill:#eeeaf5}.d{fill:#9b96a2}.a{fill:#ff3155}.b{fill:#3478ff}.box{fill:#0e1014;stroke:#48506a;stroke-width:1.4}
.h{font-size:23px;font-weight:700}.k{font-size:12px;letter-spacing:1px}.v{font-size:16px;font-weight:650}.sm{font-size:12px}
.line{fill:none;stroke:#89838f;stroke-width:1.6}.acc{fill:none;stroke:#ff3155;stroke-width:2}.sig{fill:none;stroke:#3478ff;stroke-width:2}
</style><linearGradient id="bg" x1="0" y1="0" x2="1" y2="1"><stop stop-color="#08090d"/><stop offset="1" stop-color="#15171c"/></linearGradient>
<marker id="r" viewBox="0 0 10 10" refX="9" refY="5" markerWidth="7" markerHeight="7" orient="auto"><path d="M0 0L10 5 0 10Z" fill="#ff3155"/></marker>
<marker id="u" viewBox="0 0 10 10" refX="9" refY="5" markerWidth="7" markerHeight="7" orient="auto"><path d="M0 0L10 5 0 10Z" fill="#3478ff"/></marker></defs><rect width="1200" height="285" rx="22" fill="url(#bg)"/><text x="55" y="48" class="m t h">マニューバと予測</text><text x="55" y="72" class="m d k">ノードを編集し、未来軌道を需要に応じて再計算する</text><rect x="55" y="116" width="246.25" height="108" rx="14" class="box"/><text x="73" y="150" class="s t v">現在状態</text><text x="73" y="177" class="m d sm">位置・速度</text><text x="73" y="200" class="m d sm">正本</text><rect x="336.25" y="116" width="246.25" height="108" rx="14" class="box"/><text x="354.25" y="150" class="s t v">ノード</text><text x="354.25" y="177" class="m d sm">時刻 + Δv</text><text x="354.25" y="200" class="m d sm">3軸編集</text><rect x="617.5" y="116" width="246.25" height="108" rx="14" class="box"/><text x="635.5" y="150" class="s t v">予測</text><text x="635.5" y="177" class="m d sm">上流から再計算</text><text x="635.5" y="200" class="m d sm">キャッシュ</text><rect x="898.75" y="116" width="246.25" height="108" rx="14" class="box"/><text x="916.75" y="150" class="s t v">表示</text><text x="916.75" y="177" class="m d sm">線・マーカー</text><text x="916.75" y="200" class="m d sm">世界は変えない</text><path d="M307.25 170H330.25" class="acc" marker-end="url(#r)"/><path d="M588.5 170H611.5" class="acc" marker-end="url(#r)"/><path d="M869.75 170H892.75" class="acc" marker-end="url(#r)"/></svg>