<svg xmlns="http://www.w3.org/2000/svg" width="1200" height="285" viewBox="0 0 1200 285" role="img"><title>船体・建造・ドッキング</title><defs><style>
.s{font-family:system-ui,-apple-system,"Hiragino Sans","Yu Gothic",sans-serif}.m{font-family:ui-monospace,SFMono-Regular,Menlo,Consolas,"Yu Gothic",monospace}
.t{fill:#eeeaf5}.d{fill:#9b96a2}.a{fill:#ff3155}.b{fill:#3478ff}.box{fill:#0e1014;stroke:#48506a;stroke-width:1.4}
.h{font-size:23px;font-weight:700}.k{font-size:12px;letter-spacing:1px}.v{font-size:16px;font-weight:650}.sm{font-size:12px}
.acc{fill:none;stroke:#ff3155;stroke-width:2}.sig{fill:none;stroke:#3478ff;stroke-width:2}
</style><linearGradient id="bg" x1="0" y1="0" x2="1" y2="1"><stop stop-color="#08090d"/><stop offset="1" stop-color="#15171c"/></linearGradient>
<marker id="r" viewBox="0 0 10 10" refX="9" refY="5" markerWidth="7" markerHeight="7" orient="auto"><path d="M0 0L10 5 0 10Z" fill="#ff3155"/></marker>
<marker id="u" viewBox="0 0 10 10" refX="9" refY="5" markerWidth="7" markerHeight="7" orient="auto"><path d="M0 0L10 5 0 10Z" fill="#3478ff"/></marker></defs><rect width="1200" height="285" rx="22" fill="url(#bg)"/><text x="55" y="48" class="m t h">船体・建造・ドッキング</text><text x="55" y="72" class="m d k">接続グラフを一つの物理船体として評価する</text><rect x="55" y="116" width="246.25" height="108" rx="14" class="box"/><text x="73" y="150" class="s t v">Module</text><text x="73" y="177" class="m d sm">tank / cockpit</text><text x="73" y="200" class="m d sm">個別状態</text><rect x="336.25" y="116" width="246.25" height="108" rx="14" class="box"/><text x="354.25" y="150" class="s t v">Assembly</text><text x="354.25" y="177" class="m d sm">接続グラフ</text><text x="354.25" y="200" class="m d sm">構造</text><rect x="617.5" y="116" width="246.25" height="108" rx="14" class="box"/><text x="635.5" y="150" class="s t v">能力・質量</text><text x="635.5" y="177" class="m d sm">重心 / 慣性</text><text x="635.5" y="200" class="m d sm">導出</text><rect x="898.75" y="116" width="246.25" height="108" rx="14" class="box"/><text x="916.75" y="150" class="s t v">Dock / Split</text><text x="916.75" y="177" class="m d sm">統合 / 連結成分</text><text x="916.75" y="200" class="m d sm">再構成</text><path d="M307.25 170H330.25" class="sig" marker-end="url(#u)"/><path d="M588.5 170H611.5" class="sig" marker-end="url(#u)"/><path d="M869.75 170H892.75" class="sig" marker-end="url(#u)"/></svg>